<?xml version="1.0" encoding="UTF-8"?>
<svg id="Layer_1" data-name="Layer 1" xmlns="http://www.w3.org/2000/svg" viewBox="0 0 402.5 394.26">
  <defs>
    <style>
      .cls-1, .cls-2 {
        stroke-width: 0px;
      }

      .cls-2 {
        fill: #fff;
      }
    </style>
  </defs>
  <g>
    <path class="cls-2" d="m195.07,166.78c-10.36-11.28-25.55-19.82-39.43-21.66-2.2-.29-5.73.92-6.89,2.63-13.01,19.07-19.84,40.5-20.3,63.36-.73,36.71-.5,73.44-.11,110.16.44,41.65,38.13,75.56,79.7,72.65,39.62-2.77,70.27-35.96,70.06-73.59-.2-35.1.19-70.2-.14-105.3-.08-8.85-1.09-17.89-3.14-26.49-13.56-56.77-58.35-97.73-116.36-105.28-44.23-5.76-83.21,7.3-115.44,38.08C14.42,148.69,1.5,183.09,1.51,222.42c.01,48.49.18,96.98.35,145.47.05,15.33,10.68,26.43,25.01,26.37,14.62-.05,24.91-10.71,24.92-26.29.04-44.03-.19-88.05-.05-132.08.03-11.12-.58-22.59,1.84-33.28,8.63-38.09,32.72-61.97,71.05-69.36,52.8-10.18,99.4,27.28,102.93,77.95,2.53,36.33.61,72.98.52,109.49-.02,8.85-4.58,15.44-11.97,19.91-16.7,10.09-37.73-1.65-37.88-21.39-.26-33.07.14-66.14-.17-99.21-.18-19.58,5.36-37.08,17.01-53.21Zm22.32-76.21c16.91,11.15,30.78,23.77,43.07,38.2,1.37,1.61,4.59,2.25,6.97,2.29,16.27.26,31.21,4.93,44.79,13.61,28.15,17.99,41.23,44.24,41.29,77.26.1,48.08.03,96.16.13,144.24.04,16.45,10.02,26.92,24.75,27.22,11.3.23,24.32-10.68,24.1-27.24-.65-49.9-.26-99.81-.46-149.71-.07-18.87-4.18-37.05-12-54.18-19.54-42.77-52.57-69.02-98.7-78.26-24.75-4.96-49.17-3.23-73.95,6.56Z"/>
    <path class="cls-1" d="m195.07,166.78c-11.65,16.12-17.19,33.63-17.01,53.21.31,33.07-.1,66.14.17,99.21.16,19.74,21.18,31.48,37.88,21.39,7.39-4.46,11.95-11.06,11.97-19.91.08-36.51,2-73.15-.52-109.49-3.52-50.67-50.12-88.13-102.93-77.95-38.33,7.39-62.42,31.27-71.05,69.36-2.42,10.69-1.81,22.17-1.84,33.28-.13,44.03.09,88.05.05,132.08-.01,15.58-10.3,26.23-24.92,26.29-14.33.05-24.95-11.04-25.01-26.37-.17-48.49-.34-96.98-.35-145.47,0-39.33,12.91-73.73,41.52-101.06,32.23-30.79,71.2-43.84,115.44-38.08,58.01,7.55,102.8,48.51,116.36,105.28,2.05,8.6,3.06,17.64,3.14,26.49.33,35.1-.06,70.2.14,105.3.21,37.64-30.44,70.82-70.06,73.59-41.57,2.91-79.26-31-79.7-72.65-.39-36.72-.61-73.45.11-110.16.45-22.86,7.29-44.29,20.3-63.36,1.16-1.71,4.69-2.92,6.89-2.63,13.87,1.84,29.07,10.38,39.43,21.66Z"/>
    <path class="cls-1" d="m217.39,90.57c24.79-9.79,49.21-11.52,73.95-6.56,46.13,9.24,79.15,35.49,98.7,78.26,7.82,17.12,11.93,35.3,12,54.18.2,49.9-.2,99.81.46,149.71.22,16.55-12.8,27.47-24.1,27.24-14.72-.3-24.71-10.77-24.75-27.22-.11-48.08-.03-96.16-.13-144.24-.07-33.02-13.14-59.27-41.29-77.26-13.59-8.68-28.53-13.35-44.79-13.61-2.38-.04-5.6-.68-6.97-2.29-12.29-14.43-26.16-27.04-43.07-38.2Z"/>
  </g>
  <circle class="cls-1" cx="377.55" cy="73.23" r="24.41"/>
  <rect class="cls-1" x="1.63" y="0" width="50.22" height="97.64" rx="25.11" ry="25.11"/>
</svg>