<?xml version="1.0" encoding="UTF-8"?>
<svg id="Layer_1" data-name="Layer 1" xmlns="http://www.w3.org/2000/svg" viewBox="0 0 454.31 71.83">
  <defs>
    <style>
      .cls-1 {
        stroke-width: 0px;
      }
    </style>
  </defs>
  <g>
    <path class="cls-1" d="m351.56,47.68v-22.5s0-.02.02-.02h7.47s.02,0,.02.02v22.22c0,8.53,6.56,15.77,15.07,16.26,9.23.54,16.96-6.86,16.96-15.98v-15.03c0-4.14,3.35-7.49,7.49-7.49h0s.02,0,.02.02v45s0,.02-.02.02h-7.47s-.02,0-.02-.02v-6.04s-.02-.02-.03-.01c-3.41,3.89-9.9,7.07-15.98,7.07-13.01,0-23.52-10.51-23.52-23.52Z"/>
    <g>
      <path class="cls-1" d="m330.76,66c-1.1-4.09,2.67-7.86,6.76-6.76,1.87.5,3.36,2,3.86,3.86,1.1,4.09-2.67,7.85-6.75,6.76-1.87-.5-3.36-1.99-3.87-3.86Zm1.61-16.46V12.01c0-4.15,3.36-7.51,7.51-7.51h0v37.53c0,4.15-3.36,7.51-7.51,7.51h0Z"/>
      <path class="cls-1" d="m47.03,47.53v22.5s0,.02-.02.02h-7.47s-.02,0-.02-.02v-22.22c0-8.53-6.56-15.77-15.07-16.26-9.23-.54-16.95,6.87-16.95,15.98v22.5s0,.02-.02.02H.02s-.02,0-.02-.02V7.49C0,3.35,3.35,0,7.49,0h0s.02,0,.02.02v31.06s.02.02.03.01c3.41-3.89,9.89-7.07,15.98-7.07,13.01,0,23.52,10.51,23.52,23.52Z"/>
      <path class="cls-1" d="m98.27,30.22v-5.2h7v45.6c0,1.61-1.89,1.46-3.11.41l-3.89-5.99c-4.2,3.7-10.01,6-16.01,6-13.01,0-23.52-10.51-23.52-23.52s10.51-23.52,23.52-23.52c6.1,0,11.81,2.4,16.01,6.2Zm-31.96,15.84c-.9,9.96,7.46,18.32,17.42,17.42,7.64-.69,13.78-6.84,14.47-14.48.9-9.95-7.46-18.31-17.41-17.41-7.64.69-13.78,6.84-14.48,14.47Z"/>
      <path class="cls-1" d="m160.71,35.53c4-5.2,8.91-11.51,18.81-11.51h.5c12.99,0,23.52,10.53,23.52,23.52v22.52h-7.51v-22.25c0-8.48-6.49-15.69-14.96-16.24-9.27-.6-17.17,6.82-17.17,15.98v22.52h-7.51v-22.25c0-8.52-6.55-15.74-15.05-16.24-9.24-.55-16.97,6.86-16.97,15.98v22.52h-7.51V25.02h1.4c3.37,0,6.1,2.73,6.1,6.1h0c3.4-3.9,9.91-7.11,16.01-7.11,8.61,0,16.21,4.4,20.31,11.51Z"/>
      <path class="cls-1" d="m261.95,47.53c0,13.01-10.51,23.52-23.52,23.52s-23.52-10.51-23.52-23.52,10.51-23.52,23.52-23.52,23.52,10.51,23.52,23.52Zm-39.53,0c0,8.81,7.2,16.01,16.01,16.01s16.01-7.21,16.01-16.01-7.2-16.01-16.01-16.01-16.01,7.21-16.01,16.01Z"/>
      <path class="cls-1" d="m320.76,47.53v22.5s0,.02-.02.02h-7.47s-.02,0-.02-.02v-22.22c0-8.53-6.56-15.77-15.07-16.26-9.23-.54-16.96,6.86-16.96,15.98v15.03c0,4.14-3.35,7.49-7.49,7.49h0s-.02,0-.02-.02V25.04s0-.02.02-.02h7.47s.02,0,.02.02v6.04s.02.02.03.01c3.41-3.89,9.9-7.07,15.98-7.07,13.01,0,23.52,10.51,23.52,23.52Z"/>
    </g>
  </g>
  <path class="cls-1" d="m451.05,31.63l-7.33,3.38c-2.44-2.19-7.16-3.43-12.04-3.43-7.33,0-11.07,2.62-11.07,5.48,0,7.82,33.69,4.96,33.69,19.45,0,8.39-12.7,13.54-26.37,13.54-7.98,0-16.44-2.38-21-6.39h0c4.25-2.26,10.4-2.84,15.6-1.41,1.7.47,3.53.66,5.4.75,8.06.37,16.36-2.29,16.36-6.48-.16-8.1-33.29-4.96-33.29-19.73,0-5.62,7-11.53,20.67-11.53,7.98,0,14.81,2.38,19.37,6.39Z"/>
</svg>