<?xml version="1.0" encoding="UTF-8"?>
<svg id="Layer_1" data-name="Layer 1" xmlns="http://www.w3.org/2000/svg" xmlns:xlink="http://www.w3.org/1999/xlink" viewBox="0 0 402 393.76">
  <defs>
    <style>
      .cls-1 {
        fill: #040a43;
      }

      .cls-1, .cls-2, .cls-3, .cls-4, .cls-5 {
        stroke-width: 0px;
      }

      .cls-2 {
        fill: url(#linear-gradient);
      }

      .cls-3 {
        fill: url(#linear-gradient-2);
      }

      .cls-4 {
        fill: url(#linear-gradient-3);
      }

      .cls-5 {
        fill: #ffc209;
      }
    </style>
    <linearGradient id="linear-gradient" x1="1.51" y1="237.49" x2="402" y2="237.49" gradientUnits="userSpaceOnUse">
      <stop offset="0" stop-color="#040a43"/>
      <stop offset="1" stop-color="#303ae4"/>
    </linearGradient>
    <linearGradient id="linear-gradient-2" x1="1.51" y1="237.8" x2="277.76" y2="237.8" xlink:href="#linear-gradient"/>
    <linearGradient id="linear-gradient-3" x1="217.12" y1="237.06" x2="402" y2="237.06" xlink:href="#linear-gradient"/>
  </defs>
  <g>
    <path class="cls-2" d="m194.83,166.57c-10.34-11.26-25.52-19.79-39.38-21.63-2.2-.29-5.72.92-6.88,2.62-12.99,19.05-19.82,40.44-20.27,63.28-.72,36.66-.5,73.35-.11,110.02.44,41.59,38.08,75.47,79.6,72.56,39.57-2.77,70.18-35.91,69.97-73.5-.2-35.05.19-70.11-.14-105.17-.08-8.84-1.08-17.87-3.14-26.45-13.54-56.69-58.27-97.6-116.21-105.14-44.18-5.75-83.11,7.29-115.29,38.04C14.4,148.5,1.5,182.86,1.51,222.14c.01,48.43.18,96.86.35,145.28.05,15.31,10.66,26.4,24.97,26.34,14.6-.05,24.87-10.7,24.89-26.25.04-43.97-.18-87.94-.05-131.91.03-11.1-.58-22.56,1.84-33.24,8.62-38.04,32.68-61.89,70.96-69.27,52.74-10.17,99.28,27.24,102.8,77.85,2.52,36.29.61,72.89.52,109.35-.02,8.84-4.57,15.42-11.96,19.88-16.68,10.07-37.68-1.65-37.84-21.36-.26-33.03.14-66.06-.17-99.09-.18-19.55,5.36-37.04,16.99-53.14Zm22.29-76.12c16.88,11.14,30.74,23.74,43.02,38.15,1.37,1.61,4.59,2.25,6.97,2.29,16.25.26,31.17,4.92,44.74,13.6,28.12,17.97,41.17,44.19,41.24,77.17.1,48.02.03,96.04.13,144.06.04,16.43,10.01,26.89,24.71,27.19,11.28.23,24.29-10.67,24.07-27.2-.65-49.83-.26-99.68-.46-149.52-.07-18.85-4.17-37.01-11.99-54.11-19.52-42.72-52.5-68.93-98.57-78.16-24.72-4.95-49.1-3.22-73.86,6.55Z"/>
    <path class="cls-3" d="m194.83,166.57c-11.64,16.1-17.17,33.59-16.99,53.14.31,33.03-.1,66.06.17,99.09.16,19.71,21.16,31.44,37.84,21.36,7.38-4.46,11.94-11.04,11.96-19.88.08-36.46,2-73.06-.52-109.35-3.52-50.61-50.06-88.02-102.8-77.85-38.28,7.38-62.34,31.23-70.96,69.27-2.42,10.68-1.81,22.14-1.84,33.24-.13,43.97.09,87.94.05,131.91-.01,15.56-10.28,26.2-24.89,26.25-14.31.05-24.92-11.03-24.97-26.34-.17-48.43-.34-96.86-.35-145.28,0-39.28,12.89-73.64,41.47-100.94,32.19-30.75,71.12-43.79,115.29-38.04,57.94,7.54,102.67,48.45,116.21,105.14,2.05,8.59,3.05,17.62,3.14,26.45.33,35.05-.06,70.11.14,105.17.21,37.59-30.4,70.73-69.97,73.5-41.52,2.91-79.16-30.96-79.6-72.56-.39-36.67-.61-73.36.11-110.02.45-22.84,7.28-44.23,20.27-63.28,1.16-1.7,4.68-2.91,6.88-2.62,13.86,1.84,29.03,10.37,39.38,21.63Z"/>
    <path class="cls-4" d="m217.12,90.46c24.76-9.77,49.14-11.51,73.86-6.55,46.07,9.23,79.05,35.44,98.57,78.16,7.81,17.1,11.91,35.26,11.99,54.11.2,49.84-.2,99.69.46,149.52.22,16.53-12.78,27.44-24.07,27.2-14.7-.3-24.68-10.76-24.71-27.19-.11-48.02-.03-96.04-.13-144.06-.07-32.98-13.13-59.2-41.24-77.17-13.57-8.67-28.49-13.33-44.74-13.6-2.38-.04-5.6-.68-6.97-2.29-12.28-14.41-26.13-27.01-43.02-38.15Z"/>
  </g>
  <circle class="cls-5" cx="377.07" cy="73.14" r="24.38"/>
  <rect class="cls-1" x="1.63" y="0" width="50.16" height="97.52" rx="25.08" ry="25.08"/>
</svg>