<?xml version="1.0" encoding="UTF-8"?>
<svg id="Layer_1" data-name="Layer 1" xmlns="http://www.w3.org/2000/svg" viewBox="0 0 454 71.78">
  <defs>
    <style>
      .cls-1 {
        fill: #040a43;
      }

      .cls-1, .cls-2 {
        stroke-width: 0px;
      }

      .cls-2 {
        fill: #ffc209;
      }
    </style>
  </defs>
  <g>
    <g>
      <path class="cls-1" d="m351.32,47.65v-22.48s0-.02.02-.02h7.46s.02,0,.02.02v22.21c0,8.52,6.55,15.76,15.06,16.25,9.22.54,16.94-6.86,16.94-15.97v-15.02c0-4.13,3.35-7.48,7.48-7.48h0s.02,0,.02.02v44.97s0,.02-.02.02h-7.46s-.02,0-.02-.02v-6.04s-.02-.02-.03-.01c-3.41,3.88-9.89,7.07-15.97,7.07-13,0-23.5-10.5-23.5-23.5Z"/>
      <g>
        <path class="cls-1" d="m47,47.5v22.48s0,.02-.02.02h-7.46s-.02,0-.02-.02v-22.21c0-8.52-6.55-15.76-15.06-16.25-9.22-.54-16.94,6.86-16.94,15.97v22.48s0,.02-.02.02H.02s-.02,0-.02-.02V7.48C0,3.35,3.35,0,7.48,0h0s.02,0,.02.02v31.04s.02.02.03.01c3.41-3.88,9.89-7.07,15.97-7.07,13,0,23.5,10.5,23.5,23.5Z"/>
        <path class="cls-1" d="m98.2,30.2v-5.2h7v45.57c0,1.61-1.89,1.46-3.11.41l-3.89-5.98c-4.2,3.7-10,6-16,6-13,0-23.5-10.5-23.5-23.5s10.5-23.5,23.5-23.5c6.1,0,11.8,2.4,16,6.2Zm-31.93,15.83c-.9,9.95,7.46,18.31,17.4,17.4,7.63-.69,13.77-6.84,14.46-14.47.9-9.95-7.46-18.3-17.4-17.4-7.63.69-13.77,6.83-14.47,14.46Z"/>
        <path class="cls-1" d="m160.6,35.5c4-5.2,8.9-11.5,18.8-11.5h.5c12.98,0,23.5,10.52,23.5,23.5v22.5h-7.5v-22.24c0-8.47-6.49-15.68-14.94-16.23-9.26-.6-17.16,6.82-17.16,15.97v22.5h-7.5v-22.24c0-8.51-6.54-15.73-15.04-16.23-9.23-.55-16.96,6.85-16.96,15.97v22.5h-7.5V25h1.4c3.37,0,6.1,2.73,6.1,6.1h0c3.4-3.9,9.9-7.1,16-7.1,8.6,0,16.2,4.4,20.3,11.5Z"/>
        <path class="cls-1" d="m261.77,47.5c0,13-10.5,23.5-23.5,23.5s-23.5-10.5-23.5-23.5,10.5-23.5,23.5-23.5,23.5,10.5,23.5,23.5Zm-39.5,0c0,8.8,7.2,16,16,16s16-7.2,16-16-7.2-16-16-16-16,7.2-16,16Z"/>
        <path class="cls-1" d="m320.54,47.5v22.48s0,.02-.02.02h-7.46s-.02,0-.02-.02v-22.21c0-8.52-6.55-15.76-15.06-16.25-9.22-.54-16.94,6.86-16.94,15.97v15.02c0,4.13-3.35,7.48-7.48,7.48h0s-.02,0-.02-.02V25.02s0-.02.02-.02h7.46s.02,0,.02.02v6.04s.02.02.03.01c3.41-3.88,9.89-7.07,15.97-7.07,13,0,23.5,10.5,23.5,23.5Z"/>
      </g>
    </g>
    <path class="cls-1" d="m450.75,31.6l-7.32,3.38c-2.44-2.19-7.16-3.43-12.04-3.43-7.32,0-11.06,2.62-11.06,5.48,0,7.81,33.67,4.95,33.67,19.43,0,8.38-12.69,13.53-26.35,13.53-7.97,0-16.43-2.38-20.98-6.38h0c4.24-2.26,10.4-2.84,15.59-1.41,1.7.47,3.53.66,5.4.75,8.05.37,16.35-2.29,16.35-6.48-.16-8.1-33.27-4.95-33.27-19.72,0-5.62,6.99-11.53,20.66-11.53,7.97,0,14.8,2.38,19.36,6.38Z"/>
  </g>
  <path class="cls-1" d="m332.1,49.69V12.18c0-4.14,3.36-7.5,7.5-7.5h0v37.5c0,4.14-3.36,7.5-7.5,7.5h0Z"/>
  <path class="cls-2" d="m330.55,65.97c-1.1-4.09,2.67-7.86,6.75-6.75,1.87.5,3.36,1.99,3.86,3.86,1.1,4.08-2.66,7.85-6.75,6.75-1.87-.5-3.36-1.99-3.86-3.86Z"/>
</svg>