<?xml version="1.0" encoding="UTF-8"?>
<svg id="Layer_1" data-name="Layer 1" xmlns="http://www.w3.org/2000/svg" xmlns:xlink="http://www.w3.org/1999/xlink" viewBox="0 0 329.41 404.78">
  <defs>
    <style>
      .cls-1 {
        fill: #040a43;
      }

      .cls-1, .cls-2, .cls-3, .cls-4, .cls-5 {
        stroke-width: 0px;
      }

      .cls-2 {
        fill: url(#linear-gradient);
      }

      .cls-3 {
        fill: url(#linear-gradient-2);
      }

      .cls-4 {
        fill: url(#linear-gradient-3);
      }

      .cls-5 {
        fill: #ffc209;
      }
    </style>
    <linearGradient id="linear-gradient" x1="1.24" y1="194.58" x2="329.36" y2="194.58" gradientUnits="userSpaceOnUse">
      <stop offset="0" stop-color="#040a43"/>
      <stop offset="1" stop-color="#303ae4"/>
    </linearGradient>
    <linearGradient id="linear-gradient-2" x1="1.24" y1="194.84" x2="227.57" y2="194.84" xlink:href="#linear-gradient"/>
    <linearGradient id="linear-gradient-3" x1="177.89" y1="194.23" y2="194.23" xlink:href="#linear-gradient"/>
  </defs>
  <g>
    <g>
      <path class="cls-1" d="m255.15,387.33v-16.26s0-.01.01-.01h5.4s.01,0,.01.01v16.06c0,6.16,4.74,11.4,10.89,11.75,6.67.39,12.26-4.96,12.26-11.55v-10.86c0-2.99,2.42-5.41,5.41-5.41h0s.01,0,.01.01v32.52s0,.01-.01.01h-5.4s-.01,0-.01-.01v-4.37s-.01-.02-.02,0c-2.47,2.81-7.15,5.11-11.55,5.11-9.4,0-17-7.59-17-17Z"/>
      <g>
        <path class="cls-1" d="m35.04,387.22v16.26s0,.01-.01.01h-5.4s-.01,0-.01-.01v-16.06c0-6.16-4.74-11.4-10.89-11.75-6.67-.39-12.25,4.96-12.25,11.55v16.26s0,.01-.01.01H1.06s-.01,0-.01-.01v-45.21c0-2.99,2.42-5.41,5.41-5.41h0s.01,0,.01.01v22.45s.01.02.02,0c2.46-2.81,7.15-5.11,11.55-5.11,9.4,0,17,7.59,17,17Z"/>
        <path class="cls-1" d="m72.08,374.71v-3.76h5.06v32.96c0,1.16-1.37,1.06-2.25.3l-2.81-4.33c-3.04,2.68-7.23,4.34-11.57,4.34-9.4,0-17-7.59-17-17s7.59-17,17-17c4.41,0,8.53,1.74,11.57,4.48Zm-23.1,11.45c-.65,7.2,5.39,13.24,12.59,12.59,5.52-.5,9.96-4.94,10.46-10.46.65-7.19-5.39-13.24-12.59-12.59-5.52.5-9.96,4.94-10.46,10.46Z"/>
        <path class="cls-1" d="m117.21,378.54c2.89-3.76,6.44-8.32,13.6-8.32h.36c9.39,0,17,7.61,17,17v16.27h-5.42v-16.08c0-6.13-4.69-11.34-10.81-11.74-6.7-.44-12.41,4.93-12.41,11.55v16.27h-5.42v-16.09c0-6.16-4.73-11.38-10.88-11.74-6.68-.4-12.27,4.96-12.27,11.55v16.27h-5.42v-32.55h1.01c2.44,0,4.41,1.98,4.41,4.41h0c2.46-2.82,7.16-5.14,11.57-5.14,6.22,0,11.72,3.18,14.68,8.32Z"/>
        <path class="cls-1" d="m190.38,387.22c0,9.4-7.59,17-17,17s-17-7.59-17-17,7.59-17,17-17,17,7.59,17,17Zm-28.57,0c0,6.36,5.21,11.57,11.57,11.57s11.57-5.21,11.57-11.57-5.21-11.57-11.57-11.57-11.57,5.21-11.57,11.57Z"/>
        <path class="cls-1" d="m232.88,387.22v16.26s0,.01-.01.01h-5.4s-.01,0-.01-.01v-16.06c0-6.16-4.74-11.4-10.89-11.75-6.67-.39-12.26,4.96-12.26,11.55v10.86c0,2.99-2.42,5.41-5.41,5.41h0s-.01,0-.01-.01v-32.52s0-.01.01-.01h5.4s.01,0,.01.01v4.37s.01.02.02,0c2.47-2.81,7.15-5.11,11.55-5.11,9.4,0,17,7.59,17,17Z"/>
      </g>
    </g>
    <path class="cls-1" d="m327.06,375.72l-5.29,2.44c-1.76-1.58-5.18-2.48-8.71-2.48-5.29,0-8,1.9-8,3.96,0,5.65,24.35,3.58,24.35,14.05,0,6.06-9.18,9.78-19.06,9.78-5.77,0-11.88-1.72-15.18-4.62h0c3.07-1.63,7.52-2.05,11.27-1.02,1.23.34,2.55.48,3.9.54,5.82.27,11.83-1.65,11.83-4.68-.12-5.86-24.06-3.58-24.06-14.26,0-4.06,5.06-8.34,14.94-8.34,5.76,0,10.71,1.72,14,4.62Z"/>
  </g>
  <path class="cls-1" d="m243.56,389.15v-27.38c0-3.02,2.45-5.48,5.48-5.48h0v27.38c0,3.02-2.45,5.48-5.48,5.48h0Z"/>
  <path class="cls-5" d="m242.43,401.04c-.8-2.98,1.95-5.74,4.93-4.93,1.36.37,2.45,1.46,2.82,2.82.8,2.98-1.95,5.73-4.93,4.93-1.36-.37-2.45-1.45-2.82-2.82Z"/>
  <g>
    <g>
      <path class="cls-2" d="m159.62,136.48c-8.47-9.23-20.91-16.21-32.26-17.72-1.8-.24-4.68.75-5.64,2.15-10.64,15.61-16.24,33.14-16.61,51.85-.59,30.04-.41,60.1-.09,90.14.36,34.08,31.2,61.83,65.22,59.45,32.42-2.27,57.5-29.42,57.33-60.22-.16-28.72.16-57.44-.12-86.16-.07-7.24-.89-14.64-2.57-21.67-11.1-46.45-47.74-79.97-95.22-86.15-36.2-4.71-68.09,5.97-94.46,31.16C11.8,121.67,1.23,149.82,1.24,182c0,39.68.15,79.35.29,119.03.04,12.55,8.74,21.63,20.46,21.58,11.96-.04,20.38-8.76,20.39-21.51.03-36.03-.15-72.05-.04-108.08.03-9.1-.47-18.49,1.51-27.24,7.06-31.17,26.78-50.71,58.14-56.75,43.21-8.33,81.34,22.32,84.22,63.78,2.07,29.73.5,59.72.43,89.59-.02,7.24-3.75,12.64-9.8,16.29-13.67,8.25-30.87-1.35-31-17.5-.22-27.06.11-54.12-.14-81.18-.15-16.02,4.39-30.35,13.92-43.54Zm18.27-62.36c13.83,9.13,25.18,19.45,35.24,31.26,1.12,1.32,3.76,1.84,5.71,1.87,13.31.21,25.53,4.03,36.65,11.14,23.04,14.72,33.73,36.2,33.79,63.22.08,39.34.02,78.69.11,118.03.03,13.46,8.2,22.03,20.25,22.28,9.25.19,19.9-8.74,19.72-22.29-.54-40.83-.21-81.67-.37-122.51-.06-15.44-3.42-30.32-9.82-44.33-15.99-35-43.02-56.48-80.76-64.04-20.25-4.06-40.23-2.64-60.52,5.37Z"/>
      <path class="cls-3" d="m159.62,136.48c-9.53,13.19-14.07,27.52-13.92,43.54.25,27.06-.08,54.12.14,81.18.13,16.15,17.33,25.76,31,17.5,6.05-3.65,9.78-9.05,9.8-16.29.07-29.87,1.64-59.86-.43-89.59-2.88-41.46-41.02-72.11-84.22-63.78-31.36,6.05-51.08,25.59-58.14,56.75-1.98,8.75-1.48,18.14-1.51,27.24-.11,36.03.07,72.05.04,108.08-.01,12.75-8.43,21.46-20.39,21.51-11.72.04-20.42-9.04-20.46-21.58-.14-39.68-.28-79.35-.29-119.03,0-32.18,10.56-60.34,33.97-82.7,26.37-25.19,58.27-35.87,94.46-31.16,47.47,6.18,84.12,39.7,95.22,86.15,1.68,7.04,2.5,14.43,2.57,21.67.27,28.72-.05,57.44.12,86.16.17,30.8-24.91,57.95-57.33,60.22-34.02,2.38-64.86-25.37-65.22-59.45-.32-30.05-.5-60.11.09-90.14.37-18.71,5.96-36.24,16.61-51.85.95-1.4,3.84-2.39,5.64-2.15,11.35,1.51,23.79,8.49,32.26,17.72Z"/>
      <path class="cls-4" d="m177.89,74.11c20.28-8.01,40.26-9.43,60.52-5.37,37.74,7.56,64.77,29.04,80.76,64.04,6.4,14.01,9.76,28.89,9.82,44.33.16,40.84-.16,81.68.37,122.51.18,13.55-10.47,22.48-19.72,22.29-12.05-.25-20.22-8.82-20.25-22.28-.09-39.34-.03-78.69-.11-118.03-.06-27.02-10.75-48.5-33.79-63.22-11.12-7.11-23.34-10.92-36.65-11.14-1.95-.03-4.59-.56-5.71-1.87-10.06-11.81-21.41-22.13-35.24-31.26Z"/>
    </g>
    <circle class="cls-5" cx="308.94" cy="59.92" r="19.97"/>
    <rect class="cls-1" x="1.33" y="0" width="41.1" height="79.9" rx="20.55" ry="20.55"/>
  </g>
</svg>